<svg width="64" height="64" viewBox="0 0 64 64" fill="none" xmlns="http://www.w3.org/2000/svg">
  <!-- Gradients -->
  <defs>
    <linearGradient id="logoGradient" x1="0%" y1="0%" x2="100%" y2="100%">
      <stop offset="0%" stop-color="#4F46E5"/>
      <stop offset="100%" stop-color="#7C3AED"/>
    </linearGradient>
    <linearGradient id="accentGradient" x1="0%" y1="0%" x2="100%" y2="0%">
      <stop offset="0%" stop-color="#34D399"/>
      <stop offset="100%" stop-color="#6EE7B7"/>
    </linearGradient>
     <linearGradient id="cardGradient" x1="0%" y1="0%" x2="100%" y2="100%">
      <stop offset="0%" stop-color="#E0E7FF"/>
      <stop offset="100%" stop-color="#CBD5E1"/>
    </linearGradient>
  </defs>

  <!-- Background -->
  <circle cx="32" cy="32" r="30" fill="url(#logoGradient)"/>
  
  <!-- Project Management Elements -->
  <g stroke="#E0E7FF" stroke-width="2.5" stroke-linecap="round" stroke-linejoin="round">
    <!-- Kanban Board Structure (Simplified) -->
    <path d="M18 16v32M32 16v32M46 16v32" stroke="#CBD5E1" stroke-width="1.5"/>
    
    <!-- Task Cards (Modernized) -->
    <rect x="20" y="20" width="10" height="8" rx="2" fill="url(#cardGradient)" stroke="#CBD5E1" stroke-width="0.5"/>
    <rect x="34" y="20" width="10" height="8" rx="2" fill="url(#cardGradient)" stroke="#CBD5E1" stroke-width="0.5"/>
    <rect x="20" y="32" width="10" height="8" rx="2" fill="url(#accentGradient)" stroke="#CBD5E1" stroke-width="0.5"/>
     <rect x="34" y="32" width="10" height="8" rx="2" fill="url(#cardGradient)" stroke="#CBD5E1" stroke-width="0.5"/>
    <rect x="20" y="44" width="10" height="8" rx="2" fill="url(#cardGradient)" stroke="#CBD5E1" stroke-width="0.5"/>
    <rect x="34" y="44" width="10" height="8" rx="2" fill="url(#accentGradient)" stroke="#CBD5E1" stroke-width="0.5"/>
    
    <!-- Connection Lines (Subtle) -->
    <path d="M25 28v4" stroke="url(#accentGradient)" stroke-dasharray="2 2"/>
     <path d="M39 30v2" stroke="#CBD5E1" stroke-dasharray="2 2"/>
     <path d="M39 42v2" stroke="#CBD5E1" stroke-dasharray="2 2"/>
    
    <!-- Progress Indicators (Refined) -->
   <circle cx="24" cy="39" r="1.5" fill="url(#accentGradient)"/>
    <circle cx="38" cy="24" r="1.5" fill="url(#accentGradient)"/>
  </g>
</svg>